<mxfile host="app.diagrams.net" modified="2023-05-16T19:01:08.186Z" agent="Mozilla/5.0 (Macintosh; Intel Mac OS X 10_15_7) AppleWebKit/537.36 (KHTML, like Gecko) Chrome/112.0.0.0 Safari/537.36" version="21.3.2" etag="Ll3da_ewJytB9Q5HrVHs" type="github">
  <diagram name="Page-1" id="mJRnejOaMjN-V3hf4wAZ">
    <mxGraphModel>
      <root>
        <mxCell id="0" />
        <mxCell id="1" parent="0" />
      </root>
    </mxGraphModel>
  </diagram>
</mxfile>
